<mxfile host="Electron" agent="Mozilla/5.0 (Macintosh; Intel Mac OS X 10_15_7) AppleWebKit/537.36 (KHTML, like Gecko) draw.io/24.7.8 Chrome/128.0.6613.36 Electron/32.0.1 Safari/537.36" version="24.7.8">
  <diagram name="Pagina-1" id="8XA0GF0U4r00a45ndteG">
    <mxGraphModel dx="1195" dy="712" grid="1" gridSize="10" guides="1" tooltips="1" connect="1" arrows="1" fold="1" page="1" pageScale="1" pageWidth="1169" pageHeight="827" math="0" shadow="0">
      <root>
        <mxCell id="0" />
        <mxCell id="1" parent="0" />
        <mxCell id="Qrv3tHsd8QDWrn0WAsmq-15" value="" style="shape=arrow;endArrow=classic;html=1;rounded=0;fillColor=#000000;fontFamily=Fira Mono;textShadow=1;" parent="1" source="Qrv3tHsd8QDWrn0WAsmq-7" edge="1">
          <mxGeometry width="50" height="50" relative="1" as="geometry">
            <mxPoint x="510" y="490" as="sourcePoint" />
            <mxPoint x="1130" y="420" as="targetPoint" />
          </mxGeometry>
        </mxCell>
        <mxCell id="Qrv3tHsd8QDWrn0WAsmq-14" value="" style="shape=arrow;endArrow=classic;html=1;rounded=0;fillColor=#000000;fontFamily=Fira Mono;textShadow=1;" parent="1" target="Qrv3tHsd8QDWrn0WAsmq-7" edge="1">
          <mxGeometry width="50" height="50" relative="1" as="geometry">
            <mxPoint x="170" y="420" as="sourcePoint" />
            <mxPoint x="530" y="440" as="targetPoint" />
          </mxGeometry>
        </mxCell>
        <mxCell id="Qrv3tHsd8QDWrn0WAsmq-1" value="" style="ellipse;whiteSpace=wrap;html=1;aspect=fixed;fillColor=#f77f00;fontFamily=Fira Mono;textShadow=1;" parent="1" vertex="1">
          <mxGeometry x="200" y="400" width="40" height="40" as="geometry" />
        </mxCell>
        <mxCell id="Qrv3tHsd8QDWrn0WAsmq-2" value="" style="ellipse;whiteSpace=wrap;html=1;aspect=fixed;fillColor=#d62828;fontFamily=Fira Mono;textShadow=1;" parent="1" vertex="1">
          <mxGeometry x="280" y="400" width="40" height="40" as="geometry" />
        </mxCell>
        <mxCell id="Qrv3tHsd8QDWrn0WAsmq-4" value="" style="rounded=1;whiteSpace=wrap;html=1;fillColor=#d62828;fontFamily=Fira Mono;textShadow=1;" parent="1" vertex="1">
          <mxGeometry x="360" y="400" width="40" height="40" as="geometry" />
        </mxCell>
        <mxCell id="Qrv3tHsd8QDWrn0WAsmq-5" value="" style="rounded=1;whiteSpace=wrap;html=1;fillColor=#f77f00;fontFamily=Fira Mono;textShadow=1;" parent="1" vertex="1">
          <mxGeometry x="440" y="400" width="40" height="40" as="geometry" />
        </mxCell>
        <mxCell id="Qrv3tHsd8QDWrn0WAsmq-6" value="" style="rhombus;whiteSpace=wrap;html=1;fillColor=#d62828;fontFamily=Fira Mono;textShadow=1;" parent="1" vertex="1">
          <mxGeometry x="520" y="400" width="40" height="40" as="geometry" />
        </mxCell>
        <mxCell id="Qrv3tHsd8QDWrn0WAsmq-7" value="" style="shape=cylinder3;whiteSpace=wrap;html=1;boundedLbl=1;backgroundOutline=1;size=15;rotation=90;fillColor=#eae2b7;fontFamily=Fira Mono;textShadow=1;" parent="1" vertex="1">
          <mxGeometry x="640" y="340" width="80" height="160" as="geometry" />
        </mxCell>
        <mxCell id="Qrv3tHsd8QDWrn0WAsmq-16" value="" style="rounded=1;whiteSpace=wrap;html=1;fillColor=#fcbf49;fontFamily=Fira Mono;textShadow=1;" parent="1" vertex="1">
          <mxGeometry x="611.25" y="395" width="110" height="50" as="geometry" />
        </mxCell>
        <mxCell id="Qrv3tHsd8QDWrn0WAsmq-17" value="" style="ellipse;whiteSpace=wrap;html=1;aspect=fixed;fillColor=#000000;fontFamily=Fira Mono;textShadow=1;" parent="1" vertex="1">
          <mxGeometry x="613.75" y="412.5" width="15" height="15" as="geometry" />
        </mxCell>
        <mxCell id="Qrv3tHsd8QDWrn0WAsmq-18" value="" style="rounded=1;whiteSpace=wrap;html=1;fillColor=#000000;fontFamily=Fira Mono;textShadow=1;" parent="1" vertex="1">
          <mxGeometry x="633.75" y="412.5" width="15" height="15" as="geometry" />
        </mxCell>
        <mxCell id="Qrv3tHsd8QDWrn0WAsmq-19" value="" style="rhombus;whiteSpace=wrap;html=1;fillColor=#000000;fontFamily=Fira Mono;textShadow=1;" parent="1" vertex="1">
          <mxGeometry x="653.75" y="412.5" width="15" height="15" as="geometry" />
        </mxCell>
        <mxCell id="Qrv3tHsd8QDWrn0WAsmq-20" value="" style="rhombus;whiteSpace=wrap;html=1;fillColor=#000000;fontFamily=Fira Mono;textShadow=1;" parent="1" vertex="1">
          <mxGeometry x="695" y="412.5" width="15" height="15" as="geometry" />
        </mxCell>
        <mxCell id="Qrv3tHsd8QDWrn0WAsmq-21" value="throttle" style="text;html=1;align=center;verticalAlign=middle;whiteSpace=wrap;rounded=0;fontFamily=Fira Mono;textShadow=1;" parent="1" vertex="1">
          <mxGeometry x="622.5" y="385" width="87.5" height="10" as="geometry" />
        </mxCell>
        <mxCell id="Qrv3tHsd8QDWrn0WAsmq-31" value="" style="shape=curlyBracket;whiteSpace=wrap;html=1;rounded=1;labelPosition=left;verticalLabelPosition=middle;align=right;verticalAlign=middle;rotation=-90;fontFamily=Fira Mono;textShadow=1;" parent="1" vertex="1">
          <mxGeometry x="870" y="414" width="20" height="72.5" as="geometry" />
        </mxCell>
        <mxCell id="Qrv3tHsd8QDWrn0WAsmq-32" value="t" style="text;html=1;align=center;verticalAlign=middle;whiteSpace=wrap;rounded=0;fontFamily=Fira Mono;textShadow=1;" parent="1" vertex="1">
          <mxGeometry x="840" y="460" width="80" height="20" as="geometry" />
        </mxCell>
        <mxCell id="Qrv3tHsd8QDWrn0WAsmq-37" value="" style="endArrow=block;html=1;rounded=0;endFill=1;strokeWidth=1.5;sourcePerimeterSpacing=0;jumpSize=4;" parent="1" edge="1">
          <mxGeometry width="50" height="50" relative="1" as="geometry">
            <mxPoint x="675" y="419.92" as="sourcePoint" />
            <mxPoint x="690" y="420" as="targetPoint" />
            <Array as="points">
              <mxPoint x="690" y="420" />
            </Array>
          </mxGeometry>
        </mxCell>
        <mxCell id="Qrv3tHsd8QDWrn0WAsmq-38" value="" style="endArrow=block;html=1;rounded=0;endFill=1;" parent="1" target="Qrv3tHsd8QDWrn0WAsmq-16" edge="1">
          <mxGeometry width="50" height="50" relative="1" as="geometry">
            <mxPoint x="666" y="480" as="sourcePoint" />
            <mxPoint x="620" y="390" as="targetPoint" />
          </mxGeometry>
        </mxCell>
        <mxCell id="Qrv3tHsd8QDWrn0WAsmq-39" value="t" style="text;html=1;align=center;verticalAlign=middle;whiteSpace=wrap;rounded=0;fontFamily=Fira Mono;textShadow=1;" parent="1" vertex="1">
          <mxGeometry x="622.5" y="480" width="87.5" height="10" as="geometry" />
        </mxCell>
        <mxCell id="Qrv3tHsd8QDWrn0WAsmq-41" value="" style="shape=curlyBracket;whiteSpace=wrap;html=1;rounded=1;labelPosition=left;verticalLabelPosition=middle;align=right;verticalAlign=middle;rotation=-90;fontFamily=Fira Mono;textShadow=1;" parent="1" vertex="1">
          <mxGeometry x="250" y="430.25" width="20" height="40" as="geometry" />
        </mxCell>
        <mxCell id="Qrv3tHsd8QDWrn0WAsmq-42" value="t&lt;sub&gt;1&lt;/sub&gt;" style="text;html=1;align=center;verticalAlign=middle;whiteSpace=wrap;rounded=0;fontFamily=Fira Mono;textShadow=1;" parent="1" vertex="1">
          <mxGeometry x="240" y="460" width="40" height="20" as="geometry" />
        </mxCell>
        <mxCell id="Qrv3tHsd8QDWrn0WAsmq-43" value="" style="shape=curlyBracket;whiteSpace=wrap;html=1;rounded=1;labelPosition=left;verticalLabelPosition=middle;align=right;verticalAlign=middle;rotation=-90;fontFamily=Fira Mono;textShadow=1;" parent="1" vertex="1">
          <mxGeometry x="330" y="430.25" width="20" height="40" as="geometry" />
        </mxCell>
        <mxCell id="Qrv3tHsd8QDWrn0WAsmq-44" value="t&lt;sub&gt;1&lt;/sub&gt;" style="text;html=1;align=center;verticalAlign=middle;whiteSpace=wrap;rounded=0;fontFamily=Fira Mono;textShadow=1;" parent="1" vertex="1">
          <mxGeometry x="320" y="460" width="40" height="20" as="geometry" />
        </mxCell>
        <mxCell id="Qrv3tHsd8QDWrn0WAsmq-45" value="" style="shape=curlyBracket;whiteSpace=wrap;html=1;rounded=1;labelPosition=left;verticalLabelPosition=middle;align=right;verticalAlign=middle;rotation=-90;fontFamily=Fira Mono;textShadow=1;" parent="1" vertex="1">
          <mxGeometry x="410" y="430.25" width="20" height="40" as="geometry" />
        </mxCell>
        <mxCell id="Qrv3tHsd8QDWrn0WAsmq-46" value="t&lt;sub&gt;1&lt;/sub&gt;" style="text;html=1;align=center;verticalAlign=middle;whiteSpace=wrap;rounded=0;fontFamily=Fira Mono;textShadow=1;" parent="1" vertex="1">
          <mxGeometry x="400" y="460" width="40" height="20" as="geometry" />
        </mxCell>
        <mxCell id="Qrv3tHsd8QDWrn0WAsmq-47" value="" style="shape=curlyBracket;whiteSpace=wrap;html=1;rounded=1;labelPosition=left;verticalLabelPosition=middle;align=right;verticalAlign=middle;rotation=-90;fontFamily=Fira Mono;textShadow=1;" parent="1" vertex="1">
          <mxGeometry x="490" y="427.5" width="20" height="40" as="geometry" />
        </mxCell>
        <mxCell id="Qrv3tHsd8QDWrn0WAsmq-48" value="t&lt;sub&gt;1&lt;/sub&gt;" style="text;html=1;align=center;verticalAlign=middle;whiteSpace=wrap;rounded=0;fontFamily=Fira Mono;textShadow=1;" parent="1" vertex="1">
          <mxGeometry x="480" y="457.25" width="40" height="20" as="geometry" />
        </mxCell>
        <mxCell id="Qrv3tHsd8QDWrn0WAsmq-50" value="" style="ellipse;whiteSpace=wrap;html=1;aspect=fixed;fillColor=#f77f00;fontFamily=Fira Mono;textShadow=1;" parent="1" vertex="1">
          <mxGeometry x="800" y="400" width="40" height="40" as="geometry" />
        </mxCell>
        <mxCell id="Qrv3tHsd8QDWrn0WAsmq-52" value="" style="rounded=1;whiteSpace=wrap;html=1;fillColor=#d62828;fontFamily=Fira Mono;textShadow=1;" parent="1" vertex="1">
          <mxGeometry x="920" y="400" width="40" height="40" as="geometry" />
        </mxCell>
        <mxCell id="Qrv3tHsd8QDWrn0WAsmq-54" value="" style="rhombus;whiteSpace=wrap;html=1;fillColor=#d62828;fontFamily=Fira Mono;textShadow=1;" parent="1" vertex="1">
          <mxGeometry x="1040" y="400" width="40" height="40" as="geometry" />
        </mxCell>
        <mxCell id="Qrv3tHsd8QDWrn0WAsmq-55" value="" style="shape=curlyBracket;whiteSpace=wrap;html=1;rounded=1;labelPosition=left;verticalLabelPosition=middle;align=right;verticalAlign=middle;rotation=-90;fontFamily=Fira Mono;textShadow=1;" parent="1" vertex="1">
          <mxGeometry x="990" y="414" width="20" height="72.5" as="geometry" />
        </mxCell>
        <mxCell id="Qrv3tHsd8QDWrn0WAsmq-56" value="t" style="text;html=1;align=center;verticalAlign=middle;whiteSpace=wrap;rounded=0;fontFamily=Fira Mono;textShadow=1;" parent="1" vertex="1">
          <mxGeometry x="960" y="460" width="80" height="20" as="geometry" />
        </mxCell>
      </root>
    </mxGraphModel>
  </diagram>
</mxfile>
